# xmcd
#
# Track frame offsets:
#	150
#	18193
#	33707
#	47201
#	60166
#	73847
#	86986
#	100165
#	113085
#	129623
#	144654
#	153923
#	169632
#	188285
#	202444
#	216093
#	233799
#	254116
#	274806
#	287715
#	302933
#
# Disc length: 4254 seconds
#
# Revision: 1
# Processed by: cddbd v1.5.2PL0 Copyright (c) Steve Scherf et al.
# Submitted via: audiograbber 1.83.01
#
DISCID=3d109c15
DTITLE=Various Artist - Çîëîòûå õèòû Òóğöèè. Vol 1. (2004)
DYEAR=1900
DGENRE=
TTITLE0=Tarkan. - Bir Oluruz Yolunda.
TTITLE1=Mert Ekren. - Kiz Bu Bama Yapilirmi?
TTITLE2=Isin Karaca. - Yaz.
TTITLE3=Sezem Aksu. - Sen Sarki.
TTITLE4=Zeynep. - Kork Benden.
TTITLE5=Hulva Avsar. - Yar Senin Derdin Ne.
TTITLE6=Hacer. - Neden Buralardayim?
TTITLE7=Scrap Sapaz. - Cok Tatkisin. (Dj LA*s Edition)
TTITLE8=Candan Ercetin. - Sevdan Olmasa.
TTITLE9=Emir. - Bu gece Olmaz.
TTITLE10=Sertap Erener. - Yeni. (Rmx)
TTITLE11=Mustafa Sandal. - Helal Et.
TTITLE12=Askin Nur Yengi. - Cek Babam.
TTITLE13=Bendeniz. - Guzeller Guzeli.
TTITLE14=Gulsen. - Kahpe.
TTITLE15=Nalan. - Acemi Balik.
TTITLE16=Rafet El Roman. - Bu Gece Sansiliyim.
TTITLE17=Yildiz Tilbe. - Haberin Olsun.
TTITLE18=Kubat. - Yekte.
TTITLE19=Sibelim. - Ufak At Biraz Civicivler Yesin.
TTITLE20=Oguz Yilmuz. - Cekirge.
EXTD=
EXTT0=
EXTT1=
EXTT2=
EXTT3=
EXTT4=
EXTT5=
EXTT6=
EXTT7=
EXTT8=
EXTT9=
EXTT10=
EXTT11=
EXTT12=
EXTT13=
EXTT14=
EXTT15=
EXTT16=
EXTT17=
EXTT18=
EXTT19=
EXTT20=
PLAYORDER=
